<svg width="221" height="212" viewBox="0 0 221 212" fill="none" xmlns="http://www.w3.org/2000/svg">
<path d="M124.891 116.051C135.706 100.606 148.636 88.852 160.778 82.323C172.949 75.7786 184.179 74.5515 191.746 79.8499C199.313 85.1482 202.001 96.1208 200.013 109.796C198.031 123.439 191.408 139.609 180.594 155.054C169.779 170.498 156.849 182.252 144.707 188.781C132.536 195.326 121.306 196.553 113.739 191.255C106.173 185.956 103.485 174.984 105.472 161.309C107.454 147.666 114.077 131.495 124.891 116.051Z" stroke="#44FFA1"/>
<path d="M103.594 101.138C114.408 85.693 127.338 73.939 139.48 67.41C151.651 60.8656 162.881 59.6385 170.448 64.9369C178.015 70.2352 180.703 81.2078 178.716 94.8827C176.733 108.526 170.11 124.696 159.296 140.141C148.481 155.585 135.551 167.339 123.409 173.868C111.239 180.413 100.008 181.64 92.4416 176.342C84.8747 171.043 82.1869 160.071 84.174 146.396C86.1565 132.753 92.7791 116.582 103.594 101.138Z" stroke="#44FFA1"/>
<path opacity="0.75" d="M83.1149 86.7982C93.93 71.3527 106.815 59.5661 118.884 52.9852C130.984 46.3877 142.109 45.0937 149.56 50.3107C157.01 55.5276 159.599 66.4246 157.538 80.0508C155.482 93.6428 148.813 109.782 137.998 125.228C127.183 140.673 114.298 152.46 102.229 159.041C90.1293 165.638 79.0039 166.932 71.5533 161.715C64.1027 156.498 61.5135 145.601 63.5749 131.975C65.6311 118.383 72.2998 102.244 83.1149 86.7982Z" stroke="#44FFA1"/>
<path opacity="0.5" d="M60.9974 71.3116C71.8119 55.867 84.7422 44.1131 96.8842 37.584C109.055 31.0396 120.285 29.8125 127.852 35.1109C135.419 40.4093 138.106 51.3819 136.119 65.0567C134.137 78.6996 127.514 94.8702 116.7 110.315C105.885 125.76 92.955 137.513 80.8129 144.042C68.6424 150.587 57.4122 151.814 49.8454 146.516C42.2785 141.217 39.5907 130.245 41.5778 116.57C43.5603 102.927 50.1829 86.7563 60.9974 71.3116Z" stroke="#44FFA1"/>
<path opacity="0.25" d="M39.6999 56.3987C50.5149 40.9532 63.4002 29.1666 75.4693 22.5856C87.5687 15.9881 98.6941 14.6942 106.145 19.9111C113.595 25.1281 116.184 36.0251 114.123 49.6513C112.067 63.2433 105.398 79.3828 94.583 94.8283C83.768 110.274 70.8827 122.06 58.8136 128.641C46.7142 135.239 35.5889 136.533 28.1383 131.316C20.6877 126.099 18.0985 115.202 20.1599 101.576C22.2161 87.9836 28.8848 71.8442 39.6999 56.3987Z" stroke="#44FFA1"/>
</svg>
